<svg xmlns="http://www.w3.org/2000/svg" xmlns:xlink="http://www.w3.org/1999/xlink" aria-hidden="true" role="img" class="iconify iconify--logos" width="35.93" height="32" preserveAspectRatio="xMidYMid meet" viewBox="0 0 256 228"><path fill="#00D8FF" d="M210.483 73.824a171.49 171.49 0 0 0-8.24-2.597c.465-1.9.893-3.777 1.273-5.621c6.238-30.281 2.16-54.676-11.769-62.708c-13.355-7.7-35.196.329-57.254 19.526a171.23 171.23 0 0 0-6.375 5.848a155.866 155.866 0 0 0-4.241-3.917C100.759 3.829 77.587-4.822 63.673 3.233C50.33 10.957 46.379 33.89 51.995 62.588a170.974 170.974 0 0 0 1.892 8.48c-3.28.932-6.445 1.924-9.474 2.98C17.309 83.498 0 98.307 0 113.668c0 15.865 18.582 31.778 46.812 41.427a145.52 145.52 0 0 0 6.921 2.165a167.467 167.467 0 0 0-2.01 9.138c-5.354 28.2-1.173 50.591 12.134 58.266c13.744 7.926 36.812-.22 59.273-19.855a145.567 145.567 0 0 0 5.342-4.923a168.064 168.064 0 0 0 6.92 6.314c21.758 18.722 43.246 26.282 56.54 18.586c13.731-7.949 18.194-32.003 12.4-61.268a145.016 145.016 0 0 0-1.535-6.842c1.62-.48 3.21-.974 4.76-1.488c29.348-9.723 48.443-25.443 48.443-41.52c0-15.417-17.868-30.326-45.517-39.844Zm-6.365 70.984c-1.4.463-2.836.91-4.3 1.345c-3.24-10.257-7.365-21.233-12.317-32.927c4.995-9.849 9.369-19.306 13.005-28.099c2.419.758 4.774 1.549 7.062 2.372c24.307 8.633 39.062 20.307 39.062 29.374c0 9.406-15.256 21.337-42.512 29.935ZM80.786 205.685a61.526 61.526 0 0 1-1.395-4.372c3.328-1.043 6.716-2.022 10.136-2.936c-1.684-3.787-3.274-7.637-4.764-11.527a170.976 170.976 0 0 0 28.214-15.295c-11.572-22.301-25.399-41.684-40.405-56.257c-10.612-1.195-21.176-1.832-31.415-1.832C8.583 113.854 0 118.797 0 123.933c0 6.235 7.494 13.363 20.48 19.931a170.975 170.975 0 0 0 4.892 2.165Zm-45.983 43.935c-4.363-2.514-5.808-15.313-3.288-32.321c1.152-7.645 3.019-15.88 5.483-24.458c10.867 3.757 22.643 6.89 35.095 9.309c13.366 18.569 28.494 34.747 44.366 47.651a155.866 155.866 0 0 1-6.375 5.848a171.49 171.49 0 0 1-45.283 24.115ZM81.276 74.57c-12.205-3.293-23.365-5.548-33.122-6.717c2.419-8.609 5.341-16.797 8.714-24.458c13.204 1.945 27.25 4.669 41.689 8.149c-5.341 7.663-10.136 15.882-14.281 23.026ZM17.799 104.086c10.198-1.512 21.367-2.329 33.122-2.329c10.6 0 21.217 1.174 31.415 3.481c4.363-7.496 9.558-15.22 15.465-23.114c-13.492-3.484-27.25-6.16-40.826-7.966c-6.368-9.463-11.991-17.596-16.658-24.021C21.378 60.849 9.702 68.042 4.153 73.335c-5.266 5.033-4.806 14.412 6.646 30.751Zm127.83 7.531c-4.561-8.773-9.767-17.133-15.465-24.812c-5.342 7.653-10.136 15.871-14.281 23.025c12.205 3.293 23.365 5.548 33.122 6.717c-2.419 8.609-5.341 16.797-8.714 24.458c-13.204-1.945-27.25-4.669-41.689-8.149c5.341-7.663 10.136-15.882 14.281-23.026Zm45.264 65.966c-3.328 1.043-6.716 2.022-10.136 2.936c1.684 3.787 3.274 7.637 4.764 11.527a170.976 170.976 0 0 0-28.214 15.295c11.572 22.301 25.399 41.684 40.405 56.257c10.612 1.195 21.176 1.832 31.415 1.832c8.583 0 17.309-.945 25.933-2.798c-6.235-7.494-13.363-14.412-20.48-19.931a170.975 170.975 0 0 0-4.892-2.165c4.363-2.514 5.808-15.313 3.288-32.321a155.866 155.866 0 0 0-5.342-4.923a171.49 171.49 0 0 0 6.375-5.848c21.758-18.722 43.246-26.282 56.54-18.586c13.731 7.949 18.194 32.003 12.4 61.268a145.016 145.016 0 0 0 1.535 6.842c-1.62.48-3.21.974-4.76 1.488c-29.348 9.723-48.443 25.443-48.443 41.52c0 9.406-15.256 21.337-42.512 29.935a171.23 171.23 0 0 1-6.375 5.848a155.866 155.866 0 0 1-4.241 3.917c-22.058 19.197-43.899 27.226-57.254 19.526c-13.929-8.032-18.007-32.427-11.769-62.708a171.49 171.49 0 0 0 8.24-2.597Zm-6.365-70.984c-1.4-.463-2.836-.91-4.3-1.345c3.24-10.257 7.365-21.233 12.317-32.927c-4.995-9.849-9.369-19.306-13.005-28.099a145.52 145.52 0 0 0-7.062-2.372c-24.307-8.633-39.062-20.307-39.062-29.374c0-9.406 15.256-21.337 42.512-29.935a171.23 171.23 0 0 1 6.375-5.848a155.866 155.866 0 0 1 4.241-3.917c22.058-19.197 43.899-27.226 57.254-19.526c13.929 8.032 18.007 32.427 11.769 62.708a170.974 170.974 0 0 0-1.892 8.48c3.28.932 6.445 1.924 9.474 2.98c29.348 9.723 48.443 25.443 48.443 41.52c0 15.417-17.868 30.326-45.517 39.844Z"></path></svg>
